<svg xmlns="http://www.w3.org/2000/svg" width="1800" height="720" viewBox="0 0 1350 540"
    preserveAspectRatio="xMidYMid meet" xmlns:v="https://vecta.io/nano">
    <path d="M0 0h1350v540H0z" fill="#fff" />
    <path
        d="M0 270v270h675 675V270 0H675 0zm164.5-112.5L183 272c.4 0 37.1-225.9 37-228.3 0-.4 23.8-.7 53-.7h53l.2 203.4.3 203.5 30.3-201.7 30.9-203.5c.4-1.6 3.9-1.7 55.2-1.7h54.8l1.6 9.7 29.8 197.7 28.4 187.9.3-197.6L558 43h47.6c38 0 49.8.3 58.3 1.6 11.7 1.7 27.4 6.5 37.3 11.5 19.5 9.7 39.1 27.3 51.6 46.3 4 6 7.2 10.1 7.2 9 0-1-1.8-15.8-4-32.9l-4-33.2V43h41.8 41.8L854 178.5l19.1 134.7c.3-.4 8.8-60.6 18.8-133.7l18.7-134.8c.5-1.6 6.9-1.7 116.5-1.7H1143v41.5V126h-37-37v51 51h37 37v41.5V311h-37-37v52 52h37 37v41 41h-78-78l-.1-202.8-.9-199.7c-.4 1.6-15.1 92.9-32.6 202.7L921.6 497h-48.2-48.2l-.5-2.3c-.3-1.2-10.8-63.5-23.4-138.4l-22.8-136.1-1.2 10.8c-2.1 18.6-6 31.1-15.2 48.6-7 13.3-15 24.1-24.9 33.6l-8.5 8.1 25.7 86.7 25.6 87.9c0 1.7-80.6 1.6-81.3-.2-.2-.6-9.1-34.3-19.7-74.7l-19.5-73.8c-.1-.1-4.2.4-9.1 1.1l-8.9 1.2-.3 73.8-.2 73.7h-78.4-78.5l-.6-4.3c-.4-2.3-2.5-17.9-4.8-34.7l-4.2-30.5-31.7-.3-31.7-.2-.6 4.2c-.4 2.4-2.5 18-4.8 34.8l-4.2 30.5-79.8.3-79.7.2-.1-106.7-.1-106.8-18.1 106.7L205.6 497h-22.2-22.1l-.6-2.8c-.3-1.5-8.5-49.6-18.3-107l-17.9-104.3-.3 107L124 497H82.5 41V270 43h52.8 52.7zM1239 229v186h35 35l-.2 40.7-.3 40.8h-76-76l-.3-226.8L1156 43h41.5 41.5zm-598-32c0 57.7.3 73 1.3 73 .6 0 4-.7 7.5-1.5 19.9-4.7 34.4-20.4 41.8-45.2 2.1-7.1 2.7-11.6 3.1-23.3.8-23.3-2.9-39.4-12.3-53.2-8.8-13-19.3-19-38.1-22.2l-3.3-.6zm-198.3-28c-.6 2.3-21.7 181.9-21.7 184.8 0 .9 5.4 1.2 22.5 1.2 14.2 0 22.5-.4 22.5-1 0-1-21.8-181.9-22.3-185.5-.3-1.7-.4-1.7-1 .5z"
        fill="red" mask="none" />
</svg>