<svg xmlns="http://www.w3.org/2000/svg" width="1800" height="720" viewBox="0 0 1350 540"
    preserveAspectRatio="xMidYMid meet" xmlns:v="https://vecta.io/nano">
    <path d="M0 0h1350v540H0z" fill="#0376f2" />
    <path
        d="M665.917 26.353c-51.899 1.834-101.774 20.317-142.67 52.805-12.171 9.67-23.961 21.127-34.322 33.274-19.65 23.08-35.036 50.256-44.897 79.314-12.504 36.823-15.958 76.241-10.075 115.279 6.431 42.729 24.747 83.816 52.233 117.304 8.765 10.67 20.46 22.579 31.106 31.702 6.002 5.121 13.695 10.956 21.079 15.982 11.456 7.788 25.747 15.72 38.109 21.15 37.418 16.434 78.123 23.246 118.852 19.864 43.777-3.62 85.626-18.959 121.353-44.516 19.65-14.053 37.18-31.011 51.971-50.256 22.365-29.129 38.037-63.546 45.302-99.44 6.407-31.654 6.502-64.928.238-96.415-5.621-28.415-16.506-55.996-31.726-80.552-7.622-12.29-15.529-22.865-25.628-34.298-3.906-4.406-15.91-16.339-20.388-20.269-25.319-22.175-52.971-38.133-84.054-48.565-22.222-7.431-44.802-11.48-69.215-12.385-7.05-.262-9.599-.262-17.268.024zm19.173 17.84c40.538 1.882 78.599 14.005 112.421 35.798 24.39 15.744 46.659 37.251 63.094 60.903l1.572 2.263-17.911.119-17.911.119-3.954 8.694c-2.167 4.787-4.025 8.694-4.144 8.67-.095-.024-5.478-3.954-11.957-8.765l-11.742-8.717h-27.772-27.748l-24.413 18.268-24.39 18.292-.024 96.82v96.82l24.294 17.816 24.318 17.792h57.163l56.973.333c-.095.191-1.501 1.929-3.096 3.859-8.574 10.504-19.483 21.508-30.273 30.511-23.508 19.674-51.566 34.631-81.267 43.301-29.63 8.646-61.212 11.099-92.414 7.122-34.25-4.335-67.548-16.839-96.463-36.18-18.697-12.504-36.108-28.415-50.208-45.85l-2.406-2.977 62.57-.119 62.57-.119 24.485-17.721 24.461-17.721v-96.844-96.868l-24.533-18.268-24.533-18.268h-66.952c-58.402 0-66.929-.048-66.833-.357.262-.643 5.859-8.312 8.86-12.147 31.321-39.871 74.646-68 123.377-80.124a227.68 227.68 0 0 1 64.785-6.455zm193.688 127.831c18.507 38.442 25.652 81.124 20.769 124.163-2.906 25.795-10.408 51.018-22.175 74.55-3.001 6.026-6.336 12.195-6.883 12.719-.119.143-.214-12.528-.214-34.226v-34.465h-31.559-31.559v17.411 17.387l-15.41-.095c-15.101-.071-15.482-.095-17.34-.619-8.622-2.406-14.982-9.67-16.053-18.364-.191-1.358-.262-20.055-.262-57.759v-55.734l-8.813-6.383-8.813-6.502c0-.048 15.005-.095 33.345-.095h33.345v18.935 18.935h28.915 28.915l.143-.667c.191-.953 11.337-72.835 11.337-73.145 0-.691.405.024 2.31 3.954zm-405.311 29.725l11.647 8.146.5.429-.048 91.533-.071 91.533-2.429-3.882c-32.202-51.685-42.158-114.35-27.581-173.705 1.977-8.05 6.216-21.793 6.717-21.793.048 0 5.121 3.477 11.266 7.741zm112.778 3.049c8.503 2.644 14.386 9.027 16.101 17.482.453 2.12.453 4.073.405 55.258l-.071 53.067-.548 1.905c-2.072 7.36-7.717 13.433-14.624 15.744-3.692 1.215-4.454 1.262-19.888 1.286h-14.362v-66.285-66.262l-6.931-5.002-8.979-6.502-2.072-1.501 24.413.071 24.413.071z"
        fill="#fff" />
</svg>